Coordinates
version=1
nRows=16
nColumns=42
inDegrees=yes

Units are S.I. units (second, meters, Newtons, ...)
If the header above contains a line with 'inDegrees', this indicates whether rotational values are in degrees (yes) or radians (no).

endheader
time	pelvis_tilt	pelvis_list	pelvis_rotation	pelvis_tx	pelvis_ty	pelvis_tz	hip_flexion_r	hip_adduction_r	hip_rotation_r	knee_angle_r	knee_adduction_r	knee_angle_r_beta	ankle_angle_r	subtalar_angle_r	mtp_angle_r	hip_flexion_l	hip_adduction_l	hip_rotation_l	knee_angle_l	knee_adduction_l	knee_angle_l_beta	ankle_angle_l	subtalar_angle_l	mtp_angle_l	lumbar_extension	lumbar_bending	lumbar_rotation	arm_flex_r	arm_add_r	arm_rot_r	elbow_flex_r	pro_sup_r	wrist_flex_r	wrist_dev_r	arm_flex_l	arm_add_l	arm_rot_l	elbow_flex_l	pro_sup_l	wrist_flex_l	wrist_dev_l
      0.66000000	     11.27518875	     -4.46988051	     -9.61277020	     -0.43796999	      0.84065455	     -0.17737920	    -28.71018000	      5.57345769	     -3.95560058	     14.02081549	      0.25678746	      0.24470939	     24.63131787	      1.97169064	     -7.62760566	      9.69773182	     -5.67153504	    -14.56374725	      8.51326759	      6.70624415	      0.14858455	      7.75326756	     -4.02048174	     -7.62760566	    -23.26539800	      0.68067390	     15.27893313	     22.83810023	    -11.59504739	     10.31207523	     49.06936510	     90.00000001	      0.00000000	      0.00000000	    -10.38108017	     -0.79344890	    -18.62737187	     18.60650034	     90.00000001	      0.00000000	      0.00000000
      0.67000000	     11.25181034	     -4.03342264	     -9.71173547	     -0.42615339	      0.84021734	     -0.17739662	    -28.62076725	      4.75103155	     -4.92853213	     15.74209851	      0.16694910	      0.27475145	     24.24777530	      2.81424880	     -7.62213859	      9.66513773	     -4.87764097	    -14.32151182	      9.74530488	      6.32113285	      0.17008766	      7.09825726	     -4.86074366	     -7.62213859	    -23.09957858	      0.12900500	     15.22286348	     22.25935552	    -11.35049777	      9.81252446	     48.35881794	     90.00000001	      0.00000000	      0.00000000	    -10.07072507	     -0.83749795	    -19.44105403	     18.27306433	     90.00000001	      0.00000000	      0.00000000
      0.68000000	     11.16983154	     -3.84588277	     -9.83465749	     -0.41438056	      0.84008053	     -0.17690434	    -28.74317966	      4.41204485	     -4.51866407	     16.85608950	     -0.04421691	      0.29419426	     23.66663174	      2.99207137	     -7.62104872	      9.50105955	     -4.52240158	    -13.53152537	     10.70981248	      6.29230337	      0.18692149	      6.96791981	     -4.81493301	     -7.62104872	    -22.93874737	     -0.24331359	     15.35721604	     21.52609401	    -11.34775668	      9.77758058	     47.89877640	     90.00000001	      0.00000000	      0.00000000	     -9.86572101	     -0.95819549	    -19.50262016	     18.39495979	     90.00000001	      0.00000000	      0.00000000
      0.69000000	     11.25655744	     -3.47180427	     -9.88233744	     -0.40258782	      0.84040039	     -0.17706971	    -28.56119050	      3.66219645	     -5.06724786	     18.92687077	     -0.13564120	      0.33033621	     22.10323006	      2.79252161	     -7.61844162	      9.35989097	     -3.85730648	    -13.35079973	     12.07437135	      5.99800036	      0.21073754	      6.65096835	     -5.46060631	     -7.61844162	    -22.95505406	     -0.73673638	     15.27148410	     20.87541095	    -11.15725159	      9.36589838	     47.03569434	     90.00000001	      0.00000000	      0.00000000	     -9.43249171	     -1.09203707	    -19.67971979	     18.14243629	     90.00000001	      0.00000000	      0.00000000
      0.70000000	     11.36704016	     -3.18931644	     -9.85589443	     -0.39073494	      0.84107485	     -0.17710072	    -28.43347376	      3.11416553	     -4.93651954	     20.86155154	     -0.16696936	      0.36410276	     20.81505657	      2.61869213	     -7.61641879	      9.05591030	     -3.33035492	    -12.70713556	     13.19567822	      5.86781647	      0.23030803	      6.57223742	     -5.70039725	     -7.61641879	    -23.03666777	     -1.16892586	     15.18508367	     20.07463028	    -11.04635851	      9.03961805	     46.31326970	     90.00000001	      0.00000000	      0.00000000	     -8.97011779	     -1.25438118	    -19.78078799	     18.07571989	     90.00000001	      0.00000000	      0.00000000
      0.71000000	     11.49537343	     -2.91730479	     -9.79001775	     -0.37897411	      0.84212687	     -0.17678397	    -28.33371514	      2.76565574	     -4.26878301	     22.62130224	     -0.35468183	      0.39481621	     19.78205118	      2.57675270	     -7.61521470	      8.70446565	     -2.89718999	    -11.76966235	     14.29143114	      5.88509685	      0.24943253	      6.62973017	     -5.66754601	     -7.61521470	    -23.18584098	     -1.64593487	     15.15679551	     19.14123456	    -10.96740243	      8.90979184	     45.68334501	     90.00000001	      0.00000000	      0.00000000	     -8.40304596	     -1.51334856	    -19.77200223	     18.25666966	     90.00000001	      0.00000000	      0.00000000
      0.72000000	     11.66143533	     -2.42034673	     -9.76073965	     -0.36715861	      0.84335289	     -0.17725742	    -27.56524987	      1.82072714	     -4.70661927	     25.78672481	     -0.33141638	      0.45006325	     16.77905633	      0.75191880	     -7.61226895	      8.33332066	     -2.06463711	    -11.09799317	     15.35253372	      5.68428697	      0.26795226	      6.58053093	     -6.96721505	     -7.61226895	    -23.28792002	     -2.22832093	     14.99778046	     18.35268662	    -10.67662372	      8.08141920	     44.48334356	     90.00000001	      0.00000000	      0.00000000	     -7.57144143	     -1.69930734	    -19.90646247	     17.74871456	     90.00000001	      0.00000000	      0.00000000
      0.73000000	     11.84487607	     -2.21710400	     -9.58830548	     -0.35563730	      0.84504502	     -0.17749123	    -27.06820203	      1.38179112	     -3.52589359	     28.37194506	      0.10016532	      0.49518386	     13.95970868	     -1.94063047	     -7.59938935	      7.56848418	     -1.57107263	     -8.66038432	     15.65851043	      5.95229543	      0.27329256	      6.00728884	     -9.75803041	     -7.59938935	    -23.54680477	     -2.52424516	     14.84996670	     17.49277998	    -10.47575860	      7.45922264	     43.47163372	     90.00000001	      0.00000000	      0.00000000	     -6.62102984	     -1.86060881	    -20.52685623	     17.48091840	     90.00000001	      0.00000000	      0.00000000
      0.74000000	     12.08179914	     -1.93685334	     -9.57638719	     -0.34393218	      0.84673921	     -0.17771839	    -26.27282397	      0.68090822	     -2.98789002	     31.52048377	      0.38579349	      0.55013622	     11.45748670	     -2.89606987	     -7.59759407	      6.86284093	     -1.06555452	     -7.79206591	     16.35597184	      6.06328699	      0.28546556	      6.59362879	    -10.31664158	     -7.59759407	    -23.79327745	     -2.92006412	     14.78205492	     16.58612159	    -10.38833591	      7.27068976	     42.40903307	     90.00000001	      0.00000000	      0.00000000	     -5.80165354	     -2.05772644	    -20.37382011	     17.49709439	     90.00000001	      0.00000000	      0.00000000
      0.75000000	     12.19317156	     -1.64890193	     -9.46096040	     -0.33251140	      0.84835298	     -0.17815013	    -25.13935296	      0.00227180	     -2.30131372	     34.93392218	      0.85378286	      0.60971196	      8.92541628	     -4.58241944	     -7.59560069	      6.22176759	     -0.53643267	     -6.70218734	     16.84931882	      6.19794110	      0.29407609	      7.00314828	    -11.06648415	     -7.59560069	    -23.93722524	     -3.24904106	     14.60957104	     15.69972882	    -10.25603068	      6.97710322	     41.27756214	     90.00000001	      0.00000000	      0.00000000	     -4.90227358	     -2.25916748	    -20.08662368	     17.52641853	     90.00000001	      0.00000000	      0.00000000
      0.76000000	     12.28936945	     -1.54726687	     -9.11026523	     -0.32139957	      0.85016267	     -0.17864803	    -24.05331067	     -0.35807291	     -0.70096964	     38.10736601	      1.96570081	      0.66509901	      6.08550702	     -8.32586892	     -7.58819094	      5.36655389	     -0.21131180	     -4.80120391	     16.86398514	      6.51500811	      0.29433207	      6.72925639	    -13.01677334	     -7.58819094	    -24.15051751	     -3.31801654	     14.26679557	     14.82520781	    -10.01970474	      6.35869282	     40.11749063	     90.00000001	      0.00000000	      0.00000000	     -4.01589536	     -2.55381311	    -19.10880873	     17.71785853	     90.00000001	      0.00000000	      0.00000000
      0.77000000	     12.42401556	     -1.28598149	     -9.01495084	     -0.31019921	      0.85179659	     -0.17911588	    -22.69636389	     -1.08949886	      0.15268718	     41.66770668	      2.74888969	      0.72723867	      4.25651040	     -9.58106490	     -7.58555401	      4.39586462	      0.28221184	     -4.29165669	     16.75003124	      6.60712772	      0.29234320	      7.44648510	    -12.99429406	     -7.58555401	    -24.31753911	     -3.60012646	     14.06864752	     13.94706248	     -9.93702801	      6.30577782	     38.90825746	     90.00000001	      0.00000000	      0.00000000	     -3.06832365	     -2.77619043	    -18.57793155	     17.93401306	     90.00000001	      0.00000000	      0.00000000
      0.78000000	     12.49896263	     -1.08638432	     -8.81047375	     -0.29933151	      0.85331835	     -0.17975235	    -21.20416352	     -1.70896480	      1.24172839	     45.16225848	      3.77681991	      0.78823011	      2.80969558	    -11.21728488	     -7.58333758	      3.41921846	      0.68438978	     -3.79987621	     16.47686695	      6.74434428	      0.28757558	      8.10582067	    -12.92918734	     -7.58333758	    -24.47537613	     -3.75093396	     13.74577979	     13.10285550	     -9.84042724	      6.14102183	     37.73360826	     90.00000001	      0.00000000	      0.00000000	     -2.07868924	     -2.99663126	    -17.97748160	     18.23591947	     90.00000001	      0.00000000	      0.00000000
      0.79000000	     12.93320316	     -1.27100135	     -8.16842711	     -0.28863642	      0.85533742	     -0.18074291	    -20.35126205	     -1.73149666	      1.91620621	     47.98379919	      4.63707438	      0.83747528	      2.47436318	    -11.76061488	     -7.58217365	      2.09808694	      0.67811589	     -3.61580281	     16.47340910	      6.78746631	      0.28751523	      8.47606982	    -12.50266696	     -7.58217365	    -25.15041641	     -3.39212494	     13.08740989	     12.30828214	     -9.82647479	      6.02669436	     37.02327431	     90.00000001	      0.00000000	      0.00000000	     -1.05412177	     -3.14770188	    -17.64345975	     18.70046371	     90.00000001	      0.00000000	      0.00000000
      0.80000000	     12.54928844	     -0.91540243	     -8.17716313	     -0.27851939	      0.85622250	     -0.18109418	    -18.05420688	     -2.50143529	      3.77867277	     51.50626134	      6.23026678	      0.89895385	      0.84217677	    -16.05241601	     -7.57634876	      1.38224319	      1.23231350	     -2.97151750	     15.49603145	      6.82482305	      0.27045677	      8.64236092	    -13.00574432	     -7.57634876	    -24.83568264	     -3.72138116	     12.97091131	     11.53982280	     -9.54556342	      5.28440596	     35.51220513	     90.00000001	      0.00000000	      0.00000000	     -0.20009119	     -3.58060757	    -15.14825465	     19.37191342	     90.00000001	      0.00000000	      0.00000000
      0.81000000	     12.62310559	     -0.89589905	     -7.87987727	     -0.26826311	      0.85755012	     -0.18172126	    -16.44067013	     -2.76633393	      4.12791272	     54.46352201	      6.68306929	      0.95056778	      1.17769559	    -16.71098166	     -7.57441857	      0.17684957	      1.41021258	     -2.94990373	     14.71277609	      6.84542124	      0.25678638	      9.32658205	    -12.16421170	     -7.57441857	    -25.06524116	     -3.63583640	     12.59803871	     10.75691522	     -9.51118263	      5.22480644	     34.48291191	     90.00000001	      0.00000000	      0.00000000	      0.87860222	     -3.81961576	    -14.38448663	     19.89548862	     90.00000001	      0.00000000	      0.00000000
